<?xml version="1.0" encoding="UTF-8"?>
<svg width="46px" height="21px" viewBox="0 0 46 21" version="1.1" xmlns="http://www.w3.org/2000/svg" xmlns:xlink="http://www.w3.org/1999/xlink">
    <title>may-com-icon-white</title>
    <g id="页面-1" stroke="none" stroke-width="1" fill="none" fill-rule="evenodd">
        <path d="M3.47539345,16.3020134 L3.47539345,3.47651007 L3.61628778,3.47651007 L6.71596301,13.2248322 L10.285286,13.2248322 L13.431926,3.47651007 L13.5728204,3.47651007 L13.5728204,16.3020134 L17.0951786,16.3020134 L17.0951786,0 L11.4594054,0 L8.64151884,9.18456376 L8.50062452,9.18456376 L5.80014988,0 L0,0 L0,16.3020134 L3.47539345,16.3020134 Z M23.5058706,16.5369128 C24.5547506,16.5369128 25.4235989,16.3685682 26.1124157,16.0318792 C26.8012324,15.6951902 27.2787076,15.2919463 27.5448413,14.8221477 L27.5448413,14.8221477 L27.8735948,16.3020134 L30.9263052,16.3020134 L30.9263052,7.51677852 C30.9263052,6.84340045 30.828462,6.25223714 30.6327754,5.74328859 C30.4370888,5.23434004 30.1161628,4.80760626 29.6699975,4.46308725 C29.2238321,4.11856823 28.6367724,3.85626398 27.9088184,3.6761745 C27.1808643,3.49608501 26.2846198,3.40604027 25.2200849,3.40604027 C24.7660921,3.40604027 24.257307,3.42170022 23.6937297,3.45302013 C23.1301524,3.48434004 22.6057124,3.53131991 22.1204097,3.59395973 L22.1204097,3.59395973 L22.1204097,6.48322148 C22.5587476,6.4049217 23.004913,6.34619687 23.4589058,6.30704698 C23.9128986,6.26789709 24.3668915,6.24832215 24.8208843,6.24832215 C25.3844616,6.24832215 25.8384545,6.28747204 26.1828628,6.36577181 C26.5272712,6.44407159 26.8012324,6.56543624 27.0047464,6.72986577 C27.2082604,6.8942953 27.345241,7.10961969 27.4156882,7.37583893 C27.4861354,7.64205817 27.521359,7.96308725 27.521359,8.33892617 L27.521359,8.33892617 L27.521359,8.66778523 L24.3747189,8.66778523 C22.6683321,8.66778523 21.372887,8.96532438 20.4883837,9.56040268 C19.6038804,10.155481 19.1616288,11.189038 19.1616288,12.6610738 C19.1616288,13.9765101 19.5295195,14.9513423 20.265301,15.5855705 C21.0010825,16.2197987 22.0812724,16.5369128 23.5058706,16.5369128 Z M24.3747189,13.9295302 C23.7172121,13.9295302 23.2436506,13.8238255 22.9540345,13.6124161 C22.6644183,13.4010067 22.5196103,13.0447427 22.5196103,12.5436242 C22.5196103,11.901566 22.7035557,11.4787472 23.0714464,11.2751678 C23.4393371,11.0715884 24.0459655,10.9697987 24.8913315,10.9697987 L24.8913315,10.9697987 L27.521359,10.9697987 L27.521359,12.4496644 C27.30219,12.8881432 26.9186443,13.2444072 26.3707219,13.5184564 C25.8227995,13.7925056 25.1574652,13.9295302 24.3747189,13.9295302 Z M33.391956,21 C34.4878008,21 35.4192689,20.9060403 36.1863602,20.7181208 C36.9534516,20.5302013 37.6148722,20.2130872 38.170622,19.7667785 C38.7263719,19.3204698 39.2116746,18.7175615 39.6265301,17.9580537 C40.0413856,17.1985459 40.4601549,16.2550336 40.8828379,15.1275168 L40.8828379,15.1275168 L45.1331501,3.61744966 L41.4698976,3.61744966 L38.652011,12.6610738 L38.5111166,12.6610738 L35.5288534,3.61744966 L31.7481889,3.61744966 L36.6794904,16.1845638 C36.4916313,16.8266219 36.1628778,17.3003356 35.6932301,17.6057047 C35.2235823,17.9110738 34.456491,18.0637584 33.391956,18.0637584 L33.391956,18.0637584 L33.391956,21 Z" id="may-com-icon-white" fill="#242424" fill-rule="nonzero"></path>
    </g>
</svg>