<?xml version="1.0" encoding="UTF-8"?>
<svg width="486px" height="74px" viewBox="0 0 486 74" version="1.1" xmlns="http://www.w3.org/2000/svg" xmlns:xlink="http://www.w3.org/1999/xlink">
    <title>may-logo-word-dark</title>
    <g id="页面-1" stroke="none" stroke-width="1" fill="none" fill-rule="evenodd">
        <path d="M11.4062797,58.5833333 L11.4062797,16.4958333 L11.8686965,16.4958333 L22.0418649,48.4854167 L33.7564224,48.4854167 L44.0837297,16.4958333 L44.5461464,16.4958333 L44.5461464,58.5833333 L56.1065651,58.5833333 L56.1065651,5.0875 L37.6098953,5.0875 L28.3615604,35.2270833 L27.8991436,35.2270833 L19.036156,5.0875 L0,5.0875 L0,58.5833333 L11.4062797,58.5833333 Z M77.1465271,59.3541667 C80.5889628,59.3541667 83.4405328,58.8017361 85.7012368,57.696875 C87.9619409,56.5920139 89.5290199,55.26875 90.4024738,53.7270833 L90.4024738,53.7270833 L91.4814462,58.5833333 L101.500476,58.5833333 L101.500476,29.7541667 C101.500476,27.5444444 101.179353,25.6045139 100.537107,23.934375 C99.8948619,22.2642361 98.8415794,20.8638889 97.3772597,19.7333333 C95.91294,18.6027778 93.9862035,17.7420139 91.5970503,17.1510417 C89.2078972,16.5600694 86.2664129,16.2645833 82.7725975,16.2645833 C81.2825879,16.2645833 79.6127497,16.3159722 77.7630827,16.41875 C75.9134157,16.5215278 74.1921979,16.6756944 72.5994291,16.88125 L72.5994291,16.88125 L72.5994291,26.3625 C74.0380589,26.1055556 75.5023786,25.9128472 76.9923881,25.784375 C78.4823977,25.6559028 79.9724072,25.5916667 81.4624167,25.5916667 C83.3120837,25.5916667 84.8020932,25.7201389 85.9324452,25.9770833 C87.0627973,26.2340278 87.9619409,26.6322917 88.6298762,27.171875 C89.2978115,27.7114583 89.7473834,28.4180556 89.9785917,29.2916667 C90.2098001,30.1652778 90.3254043,31.21875 90.3254043,32.4520833 L90.3254043,32.4520833 L90.3254043,33.53125 L79.998097,33.53125 C74.3977164,33.53125 70.1460513,34.5076389 67.2431018,36.4604167 C64.3401522,38.4131944 62.8886774,41.8048611 62.8886774,46.6354167 C62.8886774,50.9520833 64.0960989,54.1510417 66.5109419,56.2322917 C68.9257849,58.3135417 72.47098,59.3541667 77.1465271,59.3541667 Z M79.998097,50.7979167 C77.8401522,50.7979167 76.2859181,50.4510417 75.3353948,49.7572917 C74.3848715,49.0635417 73.9096098,47.8944444 73.9096098,46.25 C73.9096098,44.1430556 74.5133206,42.7555556 75.7207421,42.0875 C76.9281636,41.4194444 78.9191246,41.0854167 81.6936251,41.0854167 L81.6936251,41.0854167 L90.3254043,41.0854167 L90.3254043,45.9416667 C89.6060894,47.3805556 88.3472882,48.5496528 86.5490009,49.4489583 C84.7507135,50.3482639 82.5670789,50.7979167 79.998097,50.7979167 Z M109.592769,74 C113.189343,74 116.246432,73.6916667 118.764034,73.075 C121.281636,72.4583333 123.452426,71.4177083 125.276403,69.953125 C127.100381,68.4885417 128.693149,66.5100694 130.05471,64.0177083 C131.41627,61.5253472 132.790675,58.4291667 134.177926,54.7291667 L134.177926,54.7291667 L148.127498,16.9583333 L136.104662,16.9583333 L126.856327,46.6354167 L126.39391,46.6354167 L116.606089,16.9583333 L104.197907,16.9583333 L120.382493,58.1979167 C119.765937,60.3048611 118.686965,61.859375 117.145576,62.8614583 C115.604186,63.8635417 113.086584,64.3645833 109.592769,64.3645833 L109.592769,64.3645833 L109.592769,74 Z M194.060894,59.3541667 C196.629876,59.3541667 199.044719,59.1486111 201.305423,58.7375 C203.566127,58.3263889 205.492864,57.7868056 207.085633,57.11875 L207.085633,57.11875 L207.085633,47.0979167 C205.030447,47.8173611 202.988107,48.3440972 200.958611,48.678125 C198.929115,49.0121528 196.809705,49.1791667 194.600381,49.1791667 C192.236917,49.1791667 190.194577,48.9222222 188.473359,48.4083333 C186.752141,47.8944444 185.326356,46.9822917 184.196004,45.671875 C183.065652,44.3614583 182.230733,42.5885417 181.691246,40.353125 C181.15176,38.1177083 180.882017,35.2527778 180.882017,31.7583333 C180.882017,28.4694444 181.15176,25.7201389 181.691246,23.5104167 C182.230733,21.3006944 183.065652,19.5149306 184.196004,18.153125 C185.326356,16.7913194 186.764986,15.8149306 188.511893,15.2239583 C190.258801,14.6329861 192.339676,14.3375 194.754519,14.3375 C197.015224,14.3375 199.121789,14.5045139 201.074215,14.8385417 C203.026641,15.1725694 204.824929,15.6222222 206.469077,16.1875 L206.469077,16.1875 L206.469077,6.08958333 C203.18078,4.90763889 199.019029,4.31666667 193.983825,4.31666667 C190.027593,4.31666667 186.469553,4.77916667 183.309705,5.70416667 C180.149857,6.62916667 177.439581,8.17083333 175.178877,10.3291667 C172.918173,12.4875 171.18411,15.3267361 169.976689,18.846875 C168.769267,22.3670139 168.165557,26.6965278 168.165557,31.8354167 C168.165557,37.4368056 168.782112,42.0232639 170.015224,45.5947917 C171.248335,49.1663194 172.995243,51.9670139 175.255947,53.996875 C177.516651,56.0267361 180.239772,57.4270833 183.425309,58.1979167 C186.610847,58.96875 190.156042,59.3541667 194.060894,59.3541667 Z M225.274025,59.3541667 C228.71646,59.3541667 231.56803,58.8017361 233.828735,57.696875 C236.089439,56.5920139 237.656518,55.26875 238.529971,53.7270833 L238.529971,53.7270833 L239.608944,58.5833333 L249.627973,58.5833333 L249.627973,29.7541667 C249.627973,27.5444444 249.306851,25.6045139 248.664605,23.934375 C248.02236,22.2642361 246.969077,20.8638889 245.504757,19.7333333 C244.040438,18.6027778 242.113701,17.7420139 239.724548,17.1510417 C237.335395,16.5600694 234.393911,16.2645833 230.900095,16.2645833 C229.410086,16.2645833 227.740247,16.3159722 225.89058,16.41875 C224.040913,16.5215278 222.319696,16.6756944 220.726927,16.88125 L220.726927,16.88125 L220.726927,26.3625 C222.165557,26.1055556 223.629876,25.9128472 225.119886,25.784375 C226.609895,25.6559028 228.099905,25.5916667 229.589914,25.5916667 C231.439581,25.5916667 232.929591,25.7201389 234.059943,25.9770833 C235.190295,26.2340278 236.089439,26.6322917 236.757374,27.171875 C237.425309,27.7114583 237.874881,28.4180556 238.106089,29.2916667 C238.337298,30.1652778 238.452902,31.21875 238.452902,32.4520833 L238.452902,32.4520833 L238.452902,33.53125 L228.125595,33.53125 C222.525214,33.53125 218.273549,34.5076389 215.370599,36.4604167 C212.46765,38.4131944 211.016175,41.8048611 211.016175,46.6354167 C211.016175,50.9520833 212.223597,54.1510417 214.63844,56.2322917 C217.053283,58.3135417 220.598478,59.3541667 225.274025,59.3541667 Z M228.125595,50.7979167 C225.96765,50.7979167 224.413416,50.4510417 223.462892,49.7572917 C222.512369,49.0635417 222.037108,47.8944444 222.037108,46.25 C222.037108,44.1430556 222.640818,42.7555556 223.84824,42.0875 C225.055661,41.4194444 227.046622,41.0854167 229.821123,41.0854167 L229.821123,41.0854167 L238.452902,41.0854167 L238.452902,45.9416667 C237.733587,47.3805556 236.474786,48.5496528 234.676499,49.4489583 C232.878211,50.3482639 230.694577,50.7979167 228.125595,50.7979167 Z M270.822074,59.0458333 C272.517602,59.0458333 274.110371,58.8916667 275.600381,58.5833333 L275.600381,58.5833333 L275.600381,49.95 C275.137964,50.0527778 274.726927,50.1170139 274.367269,50.1427083 C274.007612,50.1684028 273.673644,50.18125 273.365366,50.18125 C272.080875,50.18125 271.181732,49.8729167 270.667935,49.25625 C270.154139,48.6395833 269.897241,47.40625 269.897241,45.55625 L269.897241,45.55625 L269.897241,0 L258.722169,0 L258.722169,48.2541667 C258.722169,50.1041667 258.914843,51.7100694 259.30019,53.071875 C259.685538,54.4336806 260.353473,55.5513889 261.303996,56.425 C262.25452,57.2986111 263.500476,57.9538194 265.041865,58.390625 C266.583254,58.8274306 268.50999,59.0458333 270.822074,59.0458333 Z M298.027593,59.3541667 C299.82588,59.3541667 301.559943,59.2642361 303.229781,59.084375 C304.899619,58.9045139 306.428164,58.6861111 307.815414,58.4291667 C309.202664,58.1722222 310.422931,57.8638889 311.476213,57.5041667 C312.529496,57.1444444 313.364415,56.7847222 313.98097,56.425 L313.98097,56.425 L313.98097,47.6375 C313.313035,47.9972222 312.452426,48.3569444 311.399144,48.7166667 C310.345861,49.0763889 309.202664,49.3847222 307.969553,49.6416667 C306.736441,49.8986111 305.451951,50.1170139 304.11608,50.296875 C302.780209,50.4767361 301.470029,50.5666667 300.185538,50.5666667 C296.486204,50.5666667 293.737393,49.8729167 291.939106,48.4854167 C290.140818,47.0979167 289.138915,44.9138889 288.933397,41.9333333 L288.933397,41.9333333 L315.753568,40.2375 C315.856327,39.6722222 315.946242,38.8628472 316.023311,37.809375 C316.100381,36.7559028 316.138915,35.6381944 316.138915,34.45625 C316.138915,31.7840278 315.894862,29.3302083 315.406755,27.0947917 C314.918649,24.859375 314.00666,22.9322917 312.67079,21.3135417 C311.334919,19.6947917 309.510942,18.4357639 307.198858,17.5364583 C304.886775,16.6371528 301.932445,16.1875 298.335871,16.1875 C295.098953,16.1875 292.196004,16.5215278 289.627022,17.1895833 C287.05804,17.8576389 284.900095,19.0138889 283.153187,20.6583333 C281.40628,22.3027778 280.070409,24.5125 279.145576,27.2875 C278.220742,30.0625 277.758325,33.5569444 277.758325,37.7708333 C277.758325,41.9847222 278.220742,45.4791667 279.145576,48.2541667 C280.070409,51.0291667 281.393435,53.2388889 283.114653,54.8833333 C284.835871,56.5277778 286.955281,57.6840278 289.472883,58.3520833 C291.990485,59.0201389 294.842055,59.3541667 298.027593,59.3541667 Z M288.933397,34.1479167 C288.984776,32.5034722 289.190295,31.0774306 289.549952,29.8697917 C289.90961,28.6621528 290.449096,27.6729167 291.168411,26.9020833 C291.887726,26.13125 292.825404,25.553125 293.981446,25.1677083 C295.137488,24.7822917 296.588963,24.5895833 298.335871,24.5895833 C299.980019,24.5895833 301.303045,24.8079861 302.304948,25.2447917 C303.306851,25.6815972 304.077545,26.2725694 304.617031,27.0177083 C305.156518,27.7628472 305.516175,28.6364583 305.696004,29.6385417 C305.875833,30.640625 305.965747,31.7069444 305.965747,32.8375 L305.965747,32.8375 L288.933397,34.1479167 Z M333.94196,58.5833333 L333.94196,30.9875 C334.558516,28.8291667 335.611798,27.3388889 337.101808,26.5166667 C338.591817,25.6944444 340.492864,25.2833333 342.804948,25.2833333 C344.192198,25.2833333 345.32255,25.4246528 346.196004,25.7072917 C347.069458,25.9899306 347.750238,26.4395833 348.238344,27.05625 C348.726451,27.6729167 349.073264,28.4822917 349.278782,29.484375 C349.484301,30.4864583 349.58706,31.68125 349.58706,33.06875 L349.58706,33.06875 L349.58706,58.5833333 L360.762131,58.5833333 L360.762131,30.1395833 C360.762131,27.8270833 360.530923,25.8100694 360.068506,24.0885417 C359.606089,22.3670139 358.835395,20.9152778 357.756422,19.7333333 C356.67745,18.5513889 355.251665,17.6649306 353.479068,17.0739583 C351.70647,16.4829861 349.53568,16.1875 346.966698,16.1875 C343.9353,16.1875 341.289248,16.6628472 339.028544,17.6135417 C336.76784,18.5642361 335.072312,20.0159722 333.94196,21.96875 L333.94196,21.96875 L333.94196,16.9583333 L322.766889,16.9583333 L322.766889,58.5833333 L333.94196,58.5833333 Z M383.960038,59.3541667 C387.762131,59.3541667 390.626546,58.7375 392.553283,57.5041667 C394.480019,56.2708333 395.854424,54.7034722 396.676499,52.8020833 L396.676499,52.8020833 L397.524263,58.5833333 L407.620362,58.5833333 L407.620362,0 L396.52236,0 L396.52236,22.2770833 C395.700285,20.4270833 394.35157,18.9496528 392.476213,17.8447917 C390.600856,16.7399306 387.762131,16.1875 383.960038,16.1875 C380.568982,16.1875 377.794481,16.7527778 375.636537,17.8833333 C373.478592,19.0138889 371.783064,20.5555556 370.549952,22.5083333 C369.316841,24.4611111 368.469077,26.7479167 368.00666,29.36875 C367.544244,31.9895833 367.313035,34.7902778 367.313035,37.7708333 C367.313035,41.0597222 367.544244,44.0402778 368.00666,46.7125 C368.469077,49.3847222 369.316841,51.6586806 370.549952,53.534375 C371.783064,55.4100694 373.478592,56.8489583 375.636537,57.8510417 C377.794481,58.853125 380.568982,59.3541667 383.960038,59.3541667 Z M387.505233,50.875 C385.604187,50.875 384.075642,50.5538194 382.9196,49.9114583 C381.763559,49.2690972 380.87726,48.3697917 380.260704,47.2135417 C379.644148,46.0572917 379.245956,44.6697917 379.066128,43.0510417 C378.886299,41.4322917 378.796384,39.6722222 378.796384,37.7708333 C378.796384,35.9722222 378.886299,34.2763889 379.066128,32.6833333 C379.245956,31.0902778 379.631304,29.6899306 380.222169,28.4822917 C380.813035,27.2746528 381.686489,26.3111111 382.842531,25.5916667 C383.998573,24.8722222 385.552807,24.5125 387.505233,24.5125 C389.40628,24.5125 390.973359,24.8336806 392.20647,25.4760417 C393.439581,26.1184028 394.415794,27.0177083 395.135109,28.1739583 C395.854424,29.3302083 396.355376,30.7177083 396.637964,32.3364583 C396.920552,33.9552083 397.061846,35.7666667 397.061846,37.7708333 C397.061846,39.8777778 396.920552,41.740625 396.637964,43.359375 C396.355376,44.978125 395.854424,46.3527778 395.135109,47.4833333 C394.415794,48.6138889 393.439581,49.4618056 392.20647,50.0270833 C390.973359,50.5923611 389.40628,50.875 387.505233,50.875 Z M428.352046,59.3541667 C431.794481,59.3541667 434.646051,58.8017361 436.906755,57.696875 C439.16746,56.5920139 440.734539,55.26875 441.607992,53.7270833 L441.607992,53.7270833 L442.686965,58.5833333 L452.705994,58.5833333 L452.705994,29.7541667 C452.705994,27.5444444 452.384872,25.6045139 451.742626,23.934375 C451.100381,22.2642361 450.047098,20.8638889 448.582778,19.7333333 C447.118459,18.6027778 445.191722,17.7420139 442.802569,17.1510417 C440.413416,16.5600694 437.471932,16.2645833 433.978116,16.2645833 C432.488107,16.2645833 430.818268,16.3159722 428.968601,16.41875 C427.118934,16.5215278 425.397716,16.6756944 423.804948,16.88125 L423.804948,16.88125 L423.804948,26.3625 C425.243578,26.1055556 426.707897,25.9128472 428.197907,25.784375 C429.687916,25.6559028 431.177926,25.5916667 432.667935,25.5916667 C434.517602,25.5916667 436.007612,25.7201389 437.137964,25.9770833 C438.268316,26.2340278 439.16746,26.6322917 439.835395,27.171875 C440.50333,27.7114583 440.952902,28.4180556 441.18411,29.2916667 C441.415319,30.1652778 441.530923,31.21875 441.530923,32.4520833 L441.530923,32.4520833 L441.530923,33.53125 L431.203616,33.53125 C425.603235,33.53125 421.35157,34.5076389 418.44862,36.4604167 C415.545671,38.4131944 414.094196,41.8048611 414.094196,46.6354167 C414.094196,50.9520833 415.301618,54.1510417 417.716461,56.2322917 C420.131304,58.3135417 423.676499,59.3541667 428.352046,59.3541667 Z M431.203616,50.7979167 C429.045671,50.7979167 427.491437,50.4510417 426.540913,49.7572917 C425.59039,49.0635417 425.115128,47.8944444 425.115128,46.25 C425.115128,44.1430556 425.718839,42.7555556 426.926261,42.0875 C428.133682,41.4194444 430.124643,41.0854167 432.899144,41.0854167 L432.899144,41.0854167 L441.530923,41.0854167 L441.530923,45.9416667 C440.811608,47.3805556 439.552807,48.5496528 437.75452,49.4489583 C435.956232,50.3482639 433.772598,50.7979167 431.203616,50.7979167 Z M473.052331,58.5833333 L473.052331,34.91875 C473.360609,33.2229167 473.900095,31.8097222 474.67079,30.6791667 C475.441484,29.5486111 476.340628,28.6493056 477.368221,27.98125 C478.395814,27.3131944 479.53901,26.8378472 480.797812,26.5552083 C482.056613,26.2725694 483.328259,26.13125 484.61275,26.13125 L484.61275,26.13125 L485.691722,26.13125 L486,16.1875 L485.152236,16.1875 C483.919125,16.1875 482.711703,16.2902778 481.529971,16.4958333 C480.34824,16.7013889 479.243578,17.1125 478.215985,17.7291667 C477.188392,18.3458333 476.225024,19.19375 475.32588,20.2729167 C474.426736,21.3520833 473.668887,22.7395833 473.052331,24.4354167 L473.052331,24.4354167 L473.052331,16.9583333 L461.87726,16.9583333 L461.87726,58.5833333 L473.052331,58.5833333 Z" id="may-logo-word-dark" fill="#FFFFFF" fill-rule="nonzero"></path>
    </g>
</svg>