<?xml version="1.0" encoding="UTF-8"?>
<svg width="87px" height="23px" viewBox="0 0 87 23" version="1.1" xmlns="http://www.w3.org/2000/svg" xmlns:xlink="http://www.w3.org/1999/xlink">
    <title>calendso-logo-white-word</title>
    <g id="页面-1" stroke="none" stroke-width="1" fill="none" fill-rule="evenodd">
        <g id="calendso-logo-white-word" fill="#242424" fill-rule="nonzero">
            <path d="M3.57792946,18.2083333 L3.57792946,5.12708333 L3.72298065,5.12708333 L6.91410693,15.0697917 L10.5887372,15.0697917 L13.8282139,5.12708333 L13.973265,5.12708333 L13.973265,18.2083333 L17.5995449,18.2083333 L17.5995449,1.58125 L11.7974971,1.58125 L8.89647325,10.9489583 L8.75142206,10.9489583 L5.97127416,1.58125 L0,1.58125 L0,18.2083333 L3.57792946,18.2083333 Z M24.1993743,18.4479167 C25.2791998,18.4479167 26.1736822,18.2762153 26.8828214,17.9328125 C27.5919605,17.5894097 28.0835229,17.178125 28.3575085,16.6989583 L28.6959613,18.2083333 L31.8387372,18.2083333 L31.8387372,9.24791667 C31.8387372,8.56111111 31.7380072,7.95815972 31.5365472,7.4390625 C31.3350872,6.91996528 31.0046928,6.48472222 30.545364,6.13333333 C30.0860352,5.78194444 29.4816553,5.51440972 28.7322241,5.33072917 C27.9827929,5.14704861 27.0601062,5.05520833 25.9641638,5.05520833 C25.4967766,5.05520833 24.9729806,5.07118056 24.3927759,5.103125 C23.8125711,5.13506944 23.2726583,5.18298611 22.7730375,5.246875 L22.7730375,8.19375 C23.2243079,8.11388889 23.6836367,8.05399306 24.1510239,8.0140625 C24.6184111,7.97413194 25.0857982,7.95416667 25.5531854,7.95416667 C26.1333902,7.95416667 26.6007774,7.99409722 26.955347,8.07395833 C27.3099165,8.15381944 27.5919605,8.27760417 27.8014789,8.4453125 C28.0109973,8.61302083 28.1520193,8.83263889 28.2245449,9.10416667 C28.2970705,9.37569444 28.3333333,9.703125 28.3333333,10.0864583 L28.3333333,10.421875 L25.0938566,10.421875 C23.3371255,10.421875 22.0034604,10.7253472 21.0928612,11.3322917 C20.182262,11.9392361 19.7269624,12.9934028 19.7269624,14.4947917 C19.7269624,15.8364583 20.1057072,16.8307292 20.8631968,17.4776042 C21.6206864,18.1244792 22.7327455,18.4479167 24.1993743,18.4479167 Z M25.0938566,15.7885417 C24.4169511,15.7885417 23.9294179,15.6807292 23.6312571,15.4651042 C23.3330963,15.2494792 23.1840159,14.8861111 23.1840159,14.375 C23.1840159,13.7201389 23.3733883,13.2888889 23.7521331,13.08125 C24.1308779,12.8736111 24.7554038,12.7697917 25.625711,12.7697917 L28.3333333,12.7697917 L28.3333333,14.2791667 C28.1076981,14.7263889 27.7128365,15.0897569 27.1487486,15.3692708 C26.5846606,15.6487847 25.8996966,15.7885417 25.0938566,15.7885417 Z M34.3771331,23 C35.5053091,23 36.4642586,22.9041667 37.2539818,22.7125 C38.043705,22.5208333 38.7246397,22.1973958 39.2967861,21.7421875 C39.8689325,21.2869792 40.3685533,20.6720486 40.7956484,19.8973958 C41.2227436,19.1227431 41.653868,18.1604167 42.0890216,17.0104167 L46.4647326,5.27083333 L42.6934016,5.27083333 L39.7923777,14.4947917 L39.6473265,14.4947917 L36.5770762,5.27083333 L32.6848692,5.27083333 L37.761661,18.0885417 C37.5682594,18.7434028 37.2298066,19.2265625 36.7463026,19.5380208 C36.2627986,19.8494792 35.4730755,20.0052083 34.3771331,20.0052083 L34.3771331,23 Z M61.4226394,18.4479167 C62.2284793,18.4479167 62.9859689,18.3840278 63.6951081,18.25625 C64.4042472,18.1284722 65.0086272,17.9607639 65.508248,17.753125 L65.508248,14.6385417 C64.863576,14.8621528 64.2229332,15.0258681 63.5863197,15.1296875 C62.9497061,15.2335069 62.2848881,15.2854167 61.5918658,15.2854167 C60.850493,15.2854167 60.2098502,15.2055556 59.6699374,15.0458333 C59.1300246,14.8861111 58.6827835,14.6026042 58.3282139,14.1953125 C57.9736443,13.7880208 57.7117463,13.2369792 57.5425199,12.5421875 C57.3732935,11.8473958 57.2886803,10.9569444 57.2886803,9.87083333 C57.2886803,8.84861111 57.3732935,7.99409722 57.5425199,7.30729167 C57.7117463,6.62048611 57.9736443,6.06545139 58.3282139,5.6421875 C58.6827835,5.21892361 59.1340538,4.91545139 59.682025,4.73177083 C60.2299962,4.54809028 60.8827266,4.45625 61.6402161,4.45625 C62.3493553,4.45625 63.0101441,4.50815972 63.6225825,4.61197917 C64.2350208,4.71579861 64.7991088,4.85555556 65.3148464,5.03125 L65.3148464,1.89270833 C64.2833712,1.52534722 62.9779105,1.34166667 61.3984642,1.34166667 C60.1574706,1.34166667 59.0413823,1.48541667 58.0501991,1.77291667 C57.0590159,2.06041667 56.2088548,2.53958333 55.4997156,3.21041667 C54.7905764,3.88125 54.2466344,4.76371528 53.8678897,5.8578125 C53.4891449,6.95190972 53.2997725,8.29756944 53.2997725,9.89479167 C53.2997725,11.6357639 53.4931741,13.0612847 53.8799773,14.1713542 C54.2667804,15.2814236 54.8147516,16.1519097 55.5238908,16.7828125 C56.23303,17.4137153 57.0872203,17.8489583 58.0864619,18.0885417 C59.0857035,18.328125 60.1977626,18.4479167 61.4226394,18.4479167 Z M71.213595,18.4479167 C72.2934206,18.4479167 73.1879029,18.2762153 73.8970421,17.9328125 C74.6061813,17.5894097 75.0977436,17.178125 75.3717292,16.6989583 L75.710182,18.2083333 L78.8529579,18.2083333 L78.8529579,9.24791667 C78.8529579,8.56111111 78.7522279,7.95815972 78.5507679,7.4390625 C78.3493079,6.91996528 78.0189135,6.48472222 77.5595847,6.13333333 C77.100256,5.78194444 76.495876,5.51440972 75.7464448,5.33072917 C74.9970136,5.14704861 74.0743269,5.05520833 72.9783845,5.05520833 C72.5109973,5.05520833 71.9872014,5.07118056 71.4069966,5.103125 C70.8267918,5.13506944 70.286879,5.18298611 69.7872583,5.246875 L69.7872583,8.19375 C70.2385286,8.11388889 70.6978574,8.05399306 71.1652446,8.0140625 C71.6326318,7.97413194 72.100019,7.95416667 72.5674061,7.95416667 C73.1476109,7.95416667 73.6149981,7.99409722 73.9695677,8.07395833 C74.3241373,8.15381944 74.6061813,8.27760417 74.8156997,8.4453125 C75.025218,8.61302083 75.16624,8.83263889 75.2387656,9.10416667 C75.3112912,9.37569444 75.347554,9.703125 75.347554,10.0864583 L75.347554,10.421875 L72.1080774,10.421875 C70.3513462,10.421875 69.0176811,10.7253472 68.1070819,11.3322917 C67.1964828,11.9392361 66.7411832,12.9934028 66.7411832,14.4947917 C66.7411832,15.8364583 67.119928,16.8307292 67.8774175,17.4776042 C68.6349071,18.1244792 69.7469663,18.4479167 71.213595,18.4479167 Z M72.1080774,15.7885417 C71.4311718,15.7885417 70.9436386,15.6807292 70.6454778,15.4651042 C70.347317,15.2494792 70.1982366,14.8861111 70.1982366,14.375 C70.1982366,13.7201389 70.387609,13.2888889 70.7663538,13.08125 C71.1450986,12.8736111 71.7696246,12.7697917 72.6399317,12.7697917 L75.347554,12.7697917 L75.347554,14.2791667 C75.1219188,14.7263889 74.7270573,15.0897569 74.1629693,15.3692708 C73.5988813,15.6487847 72.9139173,15.7885417 72.1080774,15.7885417 Z M85.5011377,18.3520833 C86.032992,18.3520833 86.5326128,18.3041667 87,18.2083333 L87,15.525 C86.8549488,15.5569444 86.7260144,15.5769097 86.6131968,15.5848958 C86.5003792,15.5928819 86.39562,15.596875 86.2989192,15.596875 C85.8959992,15.596875 85.6139553,15.5010417 85.4527873,15.309375 C85.2916193,15.1177083 85.2110353,14.734375 85.2110353,14.159375 L85.2110353,0 L81.7056314,0 L81.7056314,14.9979167 C81.7056314,15.5729167 81.7660694,16.0720486 81.8869454,16.4953125 C82.0078214,16.9185764 82.2173398,17.2659722 82.5155006,17.5375 C82.8136614,17.8090278 83.2044937,18.0126736 83.6879977,18.1484375 C84.1715017,18.2842014 84.7758817,18.3520833 85.5011377,18.3520833 Z" id="May.Cal"></path>
        </g>
    </g>
</svg>