<?xml version="1.0" encoding="UTF-8"?>
<svg width="546px" height="254px" viewBox="0 0 546 254" version="1.1" xmlns="http://www.w3.org/2000/svg" xmlns:xlink="http://www.w3.org/1999/xlink">
    <title>safari-pinned-tab</title>
    <g id="é¡µé¢-1" stroke="none" stroke-width="1" fill="none" fill-rule="evenodd">
        <path d="M42.0437044,197.176734 L42.0437044,42.049217 L43.7481789,42.049217 L81.2466179,159.957494 L124.426639,159.957494 L162.493236,42.049217 L164.19771,42.049217 L164.19771,197.176734 L206.809573,197.176734 L206.809573,0 L138.630593,0 L104.541103,111.089485 L102.836628,111.089485 L70.1675337,0 L0,0 L0,197.176734 L42.0437044,197.176734 Z M284.363163,200.017897 C297.052029,200.017897 307.562955,197.98173 315.895942,193.909396 C324.228928,189.837062 330.005203,184.959732 333.224766,179.277405 L333.224766,179.277405 L337.201873,197.176734 L374.132154,197.176734 L374.132154,90.917226 C374.132154,82.7725578 372.948491,75.6222968 370.581165,69.466443 C368.21384,63.3105891 364.331425,58.1491424 358.933923,53.9821029 C353.53642,49.8150634 346.434443,46.642431 337.627992,44.4642058 C328.82154,42.2859806 317.979188,41.196868 305.100936,41.196868 C299.608741,41.196868 293.453694,41.3862789 286.635796,41.7651007 C279.817898,42.1439224 273.473465,42.7121551 267.602497,43.4697987 L267.602497,43.4697987 L267.602497,78.4161074 C272.905307,77.4690529 278.30281,76.7587621 283.795005,76.2852349 C289.287201,75.8117077 294.779396,75.5749441 300.271592,75.5749441 C307.08949,75.5749441 312.581686,76.0484713 316.748179,76.9955257 C320.914672,77.9425802 324.228928,79.4105145 326.690947,81.3993289 C329.152966,83.3881432 330.810094,85.9925429 331.662331,89.212528 C332.514568,92.432513 332.940687,96.3154362 332.940687,100.861298 L332.940687,100.861298 L332.940687,104.838926 L294.874089,104.838926 C274.231009,104.838926 258.559313,108.437733 247.859001,115.635347 C237.158689,122.83296 231.808533,135.334079 231.808533,153.138702 C231.808533,169.049217 236.259105,180.840045 245.16025,188.511186 C254.061394,196.182327 267.129032,200.017897 284.363163,200.017897 Z M294.874089,168.480984 C286.919875,168.480984 281.190947,167.202461 277.687305,164.645414 C274.183663,162.088367 272.431842,157.779269 272.431842,151.718121 C272.431842,143.952274 274.657128,138.83818 279.1077,136.375839 C283.558273,133.913497 290.896982,132.682327 301.123829,132.682327 L301.123829,132.682327 L332.940687,132.682327 L332.940687,150.581655 C330.289282,155.88516 325.649324,160.194258 319.020812,163.508949 C312.3923,166.823639 304.343392,168.480984 294.874089,168.480984 Z M403.960458,254 C417.217482,254 428.485952,252.863535 437.765869,250.590604 C447.045786,248.317673 455.047347,244.482103 461.770552,239.083893 C468.493757,233.685682 474.364724,226.393363 479.383455,217.206935 C484.402185,208.020507 489.468262,196.608501 494.581686,182.970917 L494.581686,182.970917 L546,43.753915 L501.683663,43.753915 L467.594173,153.138702 L465.889698,153.138702 L429.811655,43.753915 L384.074922,43.753915 L443.73153,195.756152 C441.458897,203.521999 437.48179,209.251678 431.800208,212.94519 C426.118627,216.638702 416.83871,218.485459 403.960458,218.485459 L403.960458,218.485459 L403.960458,254 Z" id="safari-pinned-tab" fill="#000000" fill-rule="nonzero"></path>
    </g>
</svg>